<svg id="Capa_1" enable-background="new 0 0 512 512" height="512" viewBox="0 0 512 512" width="512" xmlns="http://www.w3.org/2000/svg"><g><g><path d="m360 158.55c-11.655-2.194-22.715-6.821-32.46-13.58-9.621-6.645-17.919-15.025-24.47-24.71-14.133 13.871-31.02 24.619-49.57 31.55-1.09.4-2.18.79-3.28 1.16-13.591 4.649-27.856 7.024-42.22 7.03-19.31.028-38.402-4.071-56-12.02v76.02c0 28.72 16 54.72 37 73.54 5.911 5.298 12.268 10.076 19 14.28v32.18l-81.82 16h-6.18v-208c0-75.111 60.889-136 136-136s136 60.889 136 136v208h-6.18l-81.82-16v-32.17c29.53-18.45 56-50.89 56-87.83v-64" fill="#a0815c"/><path d="m304 311.83v32.17c0 4.49-1.37 9.98-3.67 16-11.2 29.56-44.33 72-44.33 72s-33.13-42.44-44.33-72c-2.3-6.02-3.67-11.51-3.67-16v-32.18c16.39 10.25 33.72 16.18 48 16.18s31.61-5.93 48-16.17z" fill="#ffdaaa"/><path d="m304 311.83c-16.39 10.24-33.72 16.17-48 16.17s-31.61-5.93-48-16.18c-6.732-4.204-13.089-8.982-19-14.28-21-18.82-37-44.82-37-73.54v-76.02c17.598 7.949 36.69 12.048 56 12.02 14.364-.006 28.629-2.381 42.22-7.03 1.1-.37 2.19-.76 3.28-1.16 18.55-6.931 35.438-17.679 49.57-31.55 6.551 9.685 14.849 18.065 24.47 24.71 9.745 6.759 20.805 11.386 32.46 13.58v1.45 64c0 36.94-26.47 69.38-56 87.83z" fill="#a0815c"/><g><path d="m496 496h-480l18.75-73.63c8.152-28.522 31.414-50.193 60.44-56.31l30.99-6.06 81.82-16c0 4.49 1.37 9.98 3.67 16 11.2 29.56 44.33 72 44.33 72s33.13-42.44 44.33-72c2.3-6.02 3.67-11.51 3.67-16l81.82 16 30.99 6.06c29.026 6.117 52.288 27.788 60.44 56.31z" fill="#ff9811"/><g fill="#ffdaaa"><path d="m360 158.55v65.45c0 36.94-26.47 69.38-56 87.83-16.39 10.24-33.72 16.17-48 16.17s-31.61-5.93-48-16.18c-6.732-4.204-13.089-8.982-19-14.28-21-18.82-37-44.82-37-73.54v-76.02c17.598 7.949 36.69 12.048 56 12.02 14.364-.006 28.629-2.381 42.22-7.03 1.1-.37 2.19-.76 3.28-1.16 18.55-6.931 35.438-17.679 49.57-31.55 6.551 9.685 14.849 18.065 24.47 24.71 9.745 6.759 20.805 11.386 32.46 13.58z"/><circle cx="208" cy="192" r="16"/><circle cx="304" cy="192" r="16"/></g></g></g><g><path d="m503.75 494.03-18.75-73.63c-.02-.08-.04-.15-.06-.23-8.928-31.397-34.531-55.252-66.48-61.94-.04-.01-.08-.01-.11-.02l-18.35-3.59v-202.62c0-79.4-64.6-144-144-144s-144 64.6-144 144v202.62l-18.35 3.59c-.03.01-.07.01-.11.02-31.949 6.688-57.552 30.543-66.48 61.94-.02.08-.04.15-.06.23l-18.75 73.63c-1.094 4.275 1.486 8.627 5.761 9.721.65.166 1.318.25 1.989.249h480c4.413.005 7.994-3.568 7.999-7.981.001-.671-.083-1.339-.249-1.989zm-375.75-342.03c0-70.692 57.308-128 128-128s128 57.308 128 128v199.49l-72-14.08v-21.3c30.17-20.23 56-53.94 56-92.11v-64c.004-.234-.01-.468-.04-.7.39-4.126-2.435-7.867-6.51-8.62-20.42-3.75-39.28-16.47-51.75-34.9-2.475-3.66-7.448-4.622-11.108-2.147-.397.268-.769.572-1.112.907-24.71 24.16-56.49 37.46-89.48 37.46-18.174.047-36.146-3.81-52.7-11.31-3.757-1.697-8.187-.265-10.24 3.31-.13.22-.24.45-.35.68-.467 1.038-.709 2.162-.71 3.3v76.02c0 38.17 25.83 71.88 56 92.11v21.3l-72 14.08zm128 168c-18.19 0-42.4-11.16-61.66-28.42-29.88-26.78-34.34-53.83-34.34-67.58v-64.19c15.416 5.449 31.65 8.219 48 8.19 34.26 0 67.3-12.66 93.96-35.84 12.829 15.902 30.335 27.367 50.04 32.77v59.07c0 13.75-4.46 40.8-34.34 67.58-19.26 17.26-43.47 28.42-61.66 28.42zm40 5.38v18.62c0 15.37-22.44 50.92-40 74.75-17.56-23.83-40-59.38-40-74.75v-18.62c13.85 6.81 27.82 10.62 40 10.62s26.15-3.81 40-10.62zm104 162.62v-32c0-4.418-3.582-8-8-8s-8 3.582-8 8v32h-256v-32c0-4.418-3.582-8-8-8s-8 3.582-8 8v32h-85.71l16.18-63.54c7.329-25.623 28.238-45.084 54.32-50.56l104.5-20.44c7.34 30.19 43.83 77.61 48.4 83.46 2.716 3.485 7.743 4.108 11.228 1.392.52-.405.987-.873 1.392-1.392 4.57-5.85 41.06-53.27 48.4-83.46l104.5 20.44c26.082 5.476 46.991 24.937 54.32 50.56l16.18 63.54z"/><path d="m264 264h-16c-4.418 0-8 3.582-8 8s3.582 8 8 8h16c4.418 0 8-3.582 8-8s-3.582-8-8-8z"/><circle cx="208" cy="192" r="16"/><circle cx="304" cy="192" r="16"/></g></g></svg>